<svg id="Layer_1" data-name="Layer 1" xmlns="http://www.w3.org/2000/svg" viewBox="0 0 353.14 103.08"><defs><style>.cls-1{fill:#156d8c;}.cls-2{fill:#0e8ab2;}.cls-3{fill:#07a6d9;}.cls-4{fill:#00c3ff;}.cls-5{fill:#233741;}</style></defs><title>Artboard 1</title><path class="cls-1" d="M43.34.92,7.65,21.52C3.42,24,0,30.5,0,36.13V74.76C0,80.4,3.42,83,7.65,80.55l.74-.43c0-.18,0-.37,0-.55V40.94c0-5.63,3.42-12.18,7.65-14.61L51,6.15C50.76.9,47.42-1.44,43.34.92Z"/><path class="cls-2" d="M55.9,8.12,20.21,28.73c-4.22,2.44-7.64,9-7.64,14.61V82c0,5.63,3.42,8.22,7.64,5.78l.75-.43c0-.18,0-.36,0-.55V48.14c0-5.63,3.43-12.17,7.65-14.61l35-20.18C63.32,8.11,60,5.76,55.9,8.12Z"/><path class="cls-3" d="M33.51,55.35c0-5.63,3.43-12.17,7.65-14.61l35-20.18c-.22-5.25-3.56-7.59-7.64-5.23L32.78,35.93c-4.22,2.44-7.65,9-7.65,14.61V89.17c0,5.63,3.43,8.22,7.65,5.78l.74-.43c0-.17,0-.35,0-.54Z"/><path class="cls-4" d="M81,81.56l-35.69,20.6c-4.23,2.44-7.65-.15-7.65-5.78V57.75c0-5.63,3.42-12.17,7.65-14.61L81,22.54c4.22-2.44,7.64.15,7.64,5.78V67C88.68,72.58,85.26,79.12,81,81.56Z"/><path class="cls-5" d="M112.28,45.93a.6.6,0,0,1-.6-.61V15a.6.6,0,0,1,.6-.6h15.45a.6.6,0,0,1,.6.6v4.21a.6.6,0,0,1-.6.6H118v8.47h6.87a.6.6,0,0,1,.6.6v4.2a.6.6,0,0,1-.6.6H118V45.32a.61.61,0,0,1-.61.61Z"/><path class="cls-5" d="M132.87,45.93a.6.6,0,0,1-.6-.61V15a.6.6,0,0,1,.6-.6h16a.6.6,0,0,1,.61.6v4.21a.6.6,0,0,1-.61.6H138.56v7.6h8.06a.6.6,0,0,1,.6.6v4.2a.6.6,0,0,1-.6.61h-8.06v7.7h10.32a.6.6,0,0,1,.61.6v4.2a.61.61,0,0,1-.61.61Z"/><path class="cls-5" d="M154.65,45.93a.61.61,0,0,1-.61-.61V15a.6.6,0,0,1,.61-.6h5.08a.6.6,0,0,1,.6.6V40.52h8.94a.6.6,0,0,1,.6.6v4.2a.6.6,0,0,1-.6.61Z"/><path class="cls-5" d="M174.66,45.93a.6.6,0,0,1-.6-.61V15a.6.6,0,0,1,.6-.6h5.08a.6.6,0,0,1,.61.6V40.52h8.93a.6.6,0,0,1,.6.6v4.2a.6.6,0,0,1-.6.61Z"/><path class="cls-5" d="M194.67,45.93a.6.6,0,0,1-.6-.61V15a.6.6,0,0,1,.6-.6h16a.6.6,0,0,1,.6.6v4.21a.6.6,0,0,1-.6.6H200.36v7.6h8.06a.6.6,0,0,1,.6.6v4.2a.6.6,0,0,1-.6.61h-8.06v7.7h10.33a.6.6,0,0,1,.6.6v4.2a.6.6,0,0,1-.6.61Z"/><path class="cls-5" d="M223.21,46.13A22.23,22.23,0,0,1,216,44.79a.6.6,0,0,1-.38-.68l.72-4a.59.59,0,0,1,.59-.5l.17,0a18.84,18.84,0,0,0,5.49,1h.62a3.61,3.61,0,0,0,2.78-1,3.48,3.48,0,0,0,.88-2.7,3.21,3.21,0,0,0-.72-2,6.72,6.72,0,0,0-1.86-1.33c-.53-.31-1.09-.61-1.67-.92-2.13-1.14-4.33-2.33-5.75-4.13a9,9,0,0,1-1.7-5.86,8.53,8.53,0,0,1,2-5.67c1.51-1.75,3.94-2.7,7-2.75h.37a19.18,19.18,0,0,1,6.36,1.11.58.58,0,0,1,.39.67l-.71,3.92a.62.62,0,0,1-.27.4.63.63,0,0,1-.33.09.39.39,0,0,1-.15,0,20.42,20.42,0,0,0-5.15-.75,3.27,3.27,0,0,0-2.57.86,3.65,3.65,0,0,0-.78,2.55,3.57,3.57,0,0,0,1.7,3,22.66,22.66,0,0,0,3.38,1.81,28,28,0,0,1,3.17,1.66,7,7,0,0,1,1.91,1.59,8,8,0,0,1,1.7,5.45,10.22,10.22,0,0,1-1.75,6.33c-1.45,2-4.34,3.15-8.14,3.21Z"/><path class="cls-5" d="M112.28,88.61a.6.6,0,0,1-.6-.61V57.68a.6.6,0,0,1,.6-.6h8.35c1.36,0,4.74.2,6.82,2a7.58,7.58,0,0,1,2.38,4.44,25.77,25.77,0,0,1,.31,5v8.72a25.41,25.41,0,0,1-.31,4.9,7.72,7.72,0,0,1-2.48,4.59,8.09,8.09,0,0,1-3.14,1.53,17.66,17.66,0,0,1-4.08.36Zm8-5.41c1.18,0,2.37-.15,3-1.23a7.49,7.49,0,0,0,.51-3.41V67.13a7.6,7.6,0,0,0-.51-3.42c-.62-1.07-1.81-1.22-3-1.22H118V83.2Z"/><path class="cls-5" d="M149.19,88.61a.62.62,0,0,1-.6-.5l-.94-5.22h-6.8l-.94,5.22a.62.62,0,0,1-.6.5h-5a.61.61,0,0,1-.61-.61v-.91a.59.59,0,0,1,0-.13l6.48-29.41a.6.6,0,0,1,.59-.47h7a.62.62,0,0,1,.59.47l6.53,29.67a.53.53,0,0,1,0,.13V88a.6.6,0,0,1-.6.61Zm-2.52-11.12-2.33-13.08h-.18l-2.33,13.08Z"/><path class="cls-5" d="M163.05,88.61a.61.61,0,0,1-.61-.61V62.49h-6.35a.61.61,0,0,1-.61-.61v-4.2a.6.6,0,0,1,.61-.6H175a.6.6,0,0,1,.6.6v4.2a.6.6,0,0,1-.6.61h-6.31V88a.6.6,0,0,1-.6.61Z"/><path class="cls-5" d="M191.68,88.61a.6.6,0,0,1-.59-.5l-.94-5.22h-6.81l-.94,5.22a.6.6,0,0,1-.59.5h-5a.6.6,0,0,1-.6-.61v-.91a.57.57,0,0,1,0-.13l6.48-29.41a.61.61,0,0,1,.59-.47h7a.61.61,0,0,1,.59.47l6.53,29.67a.51.51,0,0,1,0,.13V88a.61.61,0,0,1-.61.61Zm-2.51-11.12-2.34-13.08h-.17l-2.34,13.08Z"/><path class="cls-5" d="M215.63,88.61a.6.6,0,0,1-.53-.33L208.51,75.7h-.46V88a.61.61,0,0,1-.61.61h-5.08a.6.6,0,0,1-.6-.61V57.68a.6.6,0,0,1,.6-.6h5.08a.6.6,0,0,1,.61.6V69.32h.41l6.27-11.92a.61.61,0,0,1,.54-.32h5.17a.6.6,0,0,1,.6.6v.87a.61.61,0,0,1-.08.3l-7.55,12.87,8.33,15.43a.53.53,0,0,1,.07.28V88a.6.6,0,0,1-.6.61Z"/><path class="cls-5" d="M240.62,88.61a.62.62,0,0,1-.6-.5l-.94-5.22h-6.8l-.94,5.22a.62.62,0,0,1-.6.5h-5a.61.61,0,0,1-.61-.61v-.91a.59.59,0,0,1,0-.13l6.48-29.41a.6.6,0,0,1,.59-.47h7a.6.6,0,0,1,.58.47l6.54,29.67a.53.53,0,0,1,0,.13V88a.6.6,0,0,1-.6.61ZM238.1,77.49l-2.33-13.08h-.18l-2.33,13.08Z"/><path class="cls-5" d="M254.48,88.61a.61.61,0,0,1-.61-.61V62.49h-6.35a.61.61,0,0,1-.61-.61v-4.2a.6.6,0,0,1,.61-.6h19a.6.6,0,0,1,.6.6v4.2a.6.6,0,0,1-.6.61h-6.31V88a.6.6,0,0,1-.6.61Z"/><path class="cls-5" d="M283.11,88.61a.6.6,0,0,1-.59-.5l-.94-5.22h-6.81l-.94,5.22a.6.6,0,0,1-.6.5h-5a.61.61,0,0,1-.61-.61v-.91a.59.59,0,0,1,0-.13l6.48-29.41a.61.61,0,0,1,.59-.47h7a.61.61,0,0,1,.59.47l6.53,29.67a.51.51,0,0,1,0,.13V88a.61.61,0,0,1-.61.61ZM280.6,77.49l-2.34-13.08h-.18l-2.33,13.08Z"/><path class="cls-5" d="M293.79,88.61a.61.61,0,0,1-.61-.61V57.68a.6.6,0,0,1,.61-.6h5.08a.6.6,0,0,1,.6.6V83.2h8.94a.6.6,0,0,1,.6.6V88a.6.6,0,0,1-.6.61Z"/><path class="cls-5" d="M321.34,88.91c-3.57,0-6.15-1-7.68-3.06s-1.8-5-1.8-7.29V67.23c0-2.06.19-5.05,1.85-7.24s4.15-3.16,7.63-3.16c3.65,0,6.17,1,7.69,3,1.66,2.19,1.85,5.21,1.85,7.29V78.5c0,2.06-.19,5.06-1.85,7.25S324.86,88.91,321.34,88.91ZM321,62.18a2.65,2.65,0,0,0-2.21,1.07,5.89,5.89,0,0,0-.67,3.17v12.9a5.91,5.91,0,0,0,.72,3.17,2.53,2.53,0,0,0,2.16,1h.62a2.62,2.62,0,0,0,2.22-1,5.91,5.91,0,0,0,.67-3.17V66.42a6.07,6.07,0,0,0-.62-3.22,2.7,2.7,0,0,0-2.27-1Z"/><path class="cls-5" d="M345.61,88.86a14.52,14.52,0,0,1-4.85-.71,7.18,7.18,0,0,1-3.25-2.25c-1.58-2.06-1.8-5.14-1.8-8.16V67.82a19.6,19.6,0,0,1,.31-4.47A7.48,7.48,0,0,1,338.5,59a10.88,10.88,0,0,1,7.16-2.19,20,20,0,0,1,6.26,1.07.6.6,0,0,1,.38.7l-.89,4a.6.6,0,0,1-.59.47h-.13l-.68-.16-1.82-.38a14.13,14.13,0,0,0-2.58-.31,3.18,3.18,0,0,0-3,1.48,7.11,7.11,0,0,0-.62,3.47V77.89a8.52,8.52,0,0,0,.67,4,3.46,3.46,0,0,0,3,1.48,2.75,2.75,0,0,0,.4,0H347V74.26a.6.6,0,0,1,.6-.6h5a.6.6,0,0,1,.61.6V87.18a.6.6,0,0,1-.34.54,10.46,10.46,0,0,1-2.55.78A25.5,25.5,0,0,1,345.61,88.86Z"/></svg>